:SAMPLES-PER-SECOND 30
:FRAME-RANGE 1-1700
:FULLY-SPECIFIED
:DEGREES
319
root  24.5997 38.4118 -39.9986 171.428 40.0506 179.792
RightUpLeg  -4.72998 1.99462 13.6926
RightLeg  21.0553 2.29109 0.755625
RightFoot  -10.5315 -0.0668923 -0.623567
RightToes  -1.16417e-010 0 -3.6325e-017
Spine  22.5241 0.68448 -4.20392
Spine1  -1.35854 -6.12226 10.9752
HEad  -2.80745 15.3197 -11.3091
LeftShoulder1  2.99729 -5.66288 -26.5928
LeftArm  85.0906 -37.7999 -94.3957
LeftForeArm  -12.659 -16.55 -13.1892
LeftHand  -0.0212717 4.33201 -0.283236
RightShoulder  13.3617 25.9274 39.0585
RightArm  34.7252 14.2193 20.179
RightForeArm  21.9127 30.1672 5.35706
RightHand  1.56275 7.6746 13.4087
LeftUpLeg  -103.414 23.6169 -77.4989
LeftLeg  120.977 -4.86674 6.94608
LeftFoot  13.2652 1.00773 -4.99292
LeftToes  1.03528e-008 1.55373e-010 -2.26046e-010
320
root  24.867 36.9063 -40.9081 170.648 35.251 -177.277
RightUpLeg  -8.43653 3.91423 18.2982
RightLeg  35.2654 -8.11626 -6.3852
RightFoot  -15.5354 -0.539385 -11.8233
RightToes  -1.16417e-010 0 -3.6325e-017
Spine  24.6531 0.710806 -1.09414
Spine1  -0.974425 -5.78356 10.0163
HEad  -7.24865 12.8844 -10.9553
LeftShoulder1  3.03567 -5.46637 -27.774
LeftArm  89.1968 -36.8056 -94.2886
LeftForeArm  -14.5229 -17.6992 -12.1425
LeftHand  -0.0261624 4.28318 0.328969
RightShoulder  13.1792 25.3065 39.4069
RightArm  35.1362 13.4984 18.9519
RightForeArm  20.9408 31.4549 5.72193
RightHand  1.53838 7.00468 13.9401
LeftUpLeg  -102.672 29.0121 -75.925
LeftLeg  123.899 -4.62617 5.88466
LeftFoot  12.3486 0.26415 -1.62076
LeftToes  1.03528e-008 1.55373e-010 -2.26046e-010
321
root  25.1721 35.6311 -41.9161 170.216 31.5657 -177.384
RightUpLeg  -12.0433 2.50563 18.242
RightLeg  46.2196 -9.40256 -10.6671
RightFoot  -22.6134 -1.1613 -10.1876
RightToes  -1.16417e-010 0 -3.6325e-017
Spine  22.0011 0.91787 -1.78477
Spine1  2.51394 -6.33682 9.90887
HEad  -11.2319 11.9261 -9.51067
LeftShoulder1  3.06395 -5.54246 -27.803
LeftArm  89.957 -36.5924 -93.0604
LeftForeArm  -16.2975 -18.046 -11.8838
LeftHand  -0.0300607 3.97501 0.743709
RightShoulder  14.0824 26.604 40.346
RightArm  36.0407 14.693 19.1296
RightForeArm  19.631 28.8859 5.18423
RightHand  1.66685 7.33918 14.7085
LeftUpLeg  -103.701 32.6225 -77.0498
LeftLeg  126.281 -4.47853 5.19841
LeftFoot  7.52741 -0.491588 2.68202
LeftToes  1.03528e-008 1.55373e-010 -2.26046e-010
322
root  25.5864 34.9667 -43.0744 169.279 25.8278 -176.157
RightUpLeg  -11.2464 -2.05154 18.6508
RightLeg  50.6353 -10.3996 -13.6365
RightFoot  -27.4143 -1.43807 -8.84882
RightToes  -1.16417e-010 0 -3.6325e-017
Spine  21.6184 0.634547 -2.13425
Spine1  2.46777 -7.35133 12.0429
HEad  -10.7236 9.92335 -7.667
LeftShoulder1  3.09678 -5.47268 -28.449
LeftArm  77.1546 -37.2694 -92.9499
LeftForeArm  -2.91175 -14.5499 -14.4081
LeftHand  -0.0312118 4.40033 0.953939
RightShoulder  14.305 25.9879 41.997
RightArm  37.1895 14.3547 19.3639
RightForeArm  19.6874 28.3314 5.05325
RightHand  1.63487 7.19994 14.5881
LeftUpLeg  -102.748 36.1887 -75.234
LeftLeg  129.505 -3.49465 3.51062
LeftFoot  4.37614 -0.895527 6.28849
LeftToes  1.03528e-008 1.55373e-010 -2.26046e-010
323
root  26.0497 34.8433 -44.3343 168.738 21.5302 -175.175
RightUpLeg  -8.66489 -4.92577 18.9436
RightLeg  51.1168 -11.6202 -15.3553
RightFoot  -30.1231 -1.3993 -7.21263
RightToes  -1.16417e-010 0 -3.6325e-017
Spine  20.7108 0.94929 -1.46138
Spine1  1.02123 -7.32027 12.6438
HEad  -9.32259 7.12677 -6.08447
LeftShoulder1  3.12377 -5.46116 -28.8028
LeftArm  73.9207 -36.5846 -92.0083
LeftForeArm  0.429066 -13.8278 -14.8002
LeftHand  -0.0303565 4.6171 0.913717
RightShoulder  14.1329 24.4087 44.0177
RightArm  36.7973 13.3449 18.768
RightForeArm  19.1497 28.6448 5.15511
RightHand  1.5837 6.97184 14.3962
LeftUpLeg  -104.008 36.8088 -74.2246
LeftLeg  132.583 -5.49547 5.1442
LeftFoot  4.29124 -1.00054 7.08877
LeftToes  1.03528e-008 1.55373e-010 -2.26046e-010
324
root  26.4922 35.3319 -45.6614 168.467 18.9267 -176
RightUpLeg  -4.84171 -6.80767 17.1708
RightLeg  47.8684 -12.4573 -14.6542
RightFoot  -30.8797 -1.32197 -6.45113
RightToes  -1.16417e-010 0 -3.6325e-017
Spine  18.3139 1.9421 -2.13035
Spine1  0.185175 -7.045 12.4013
HEad  -8.10378 4.71499 -5.16841
LeftShoulder1  3.04669 -5.34319 -28.3856
LeftArm  76.9555 -35.5153 -90.7235
LeftForeArm  -4.67808 -14.9502 -14.1728
LeftHand  -0.0228732 4.19634 0.00226225
RightShoulder  13.938 23.6463 44.6842
RightArm  35.2934 12.6461 19.3434
RightForeArm  20.1006 29.2404 5.24056
RightHand  1.55882 6.82712 14.3414
LeftUpLeg  -107.084 35.3893 -75.3273
LeftLeg  135.089 -7.04811 6.11874
LeftFoot  4.81186 -0.722938 4.88536
LeftToes  1.03528e-008 1.55373e-010 -2.26046e-010
325
root  26.8122 36.2712 -47.1133 168.346 15.9184 -177.234
RightUpLeg  0.409794 -9.76297 13.7849
RightLeg  41.1329 -12.0818 -11.3622
RightFoot  -29.6034 -1.06566 -5.37485
RightToes  -1.16417e-010 0 -3.6325e-017
Spine  16.1405 2.91739 -2.79908
Spine1  -1.7343 -6.78284 12.0785
HEad  -5.86471 1.58179 -4.90514
LeftShoulder1  3.00387 -5.25296 -28.2475
LeftArm  71.8502 -35.3106 -90.6359
LeftForeArm  0.0738295 -13.5193 -15.0486
LeftHand  -0.0213867 4.41289 -0.353702
RightShoulder  13.6036 22.8567 44.9495
RightArm  34.662 12.0401 19.6479
RightForeArm  22.111 30.0198 5.31111
RightHand  1.53075 6.8634 14.0363
LeftUpLeg  -108.987 32.6806 -75.4499
LeftLeg  137.255 -6.0787 4.83158
LeftFoot  4.60198 -0.16712 0.994014
LeftToes  1.03528e-008 1.55373e-010 -2.26046e-010
326
root  26.9758 37.4418 -48.5869 168.193 13.6956 -179.045
RightUpLeg  6.07418 -12.141 9.1182
RightLeg  33.5174 -9.57251 -7.0144
RightFoot  -25.6974 -0.565766 -3.10891
RightToes  -1.16417e-010 0 -3.6325e-017
Spine  14.2104 4.09547 -3.23051
Spine1  -3.851 -6.19003 11.0132
HEad  -2.63039 -1.47259 -5.14941
LeftShoulder1  3.02096 -5.28296 -28.3271
LeftArm  65.0175 -35.188 -90.5634
LeftForeArm  6.38009 -11.5644 -16.0454
LeftHand  -0.0210643 4.49946 -0.511683
RightShoulder  13.3576 22.4935 44.7522
RightArm  35.0113 11.4442 20.1354
RightForeArm  22.3465 29.8094 5.2484
RightHand  1.53664 7.16274 13.7416
LeftUpLeg  -110.233 29.8837 -75.1893
LeftLeg  138.792 -4.9413 3.64328
LeftFoot  2.55504 0.277624 -2.40556
LeftToes  1.03528e-008 1.55373e-010 -2.26046e-010
327
root  26.9457 38.6144 -49.9641 167.9 12.6248 179.349
RightUpLeg  10.3278 -12.7935 5.00889
RightLeg  28.5187 -6.71077 -4.17502
RightFoot  -19.246 -0.082575 0.690065
RightToes  -1.16417e-010 0 -3.6325e-017
Spine  13.1152 5.40031 -3.068
Spine1  -5.57304 -5.49629 9.94319
HEad  -0.0377279 -4.02922 -5.65166
LeftShoulder1  3.01431 -5.32741 -28.0723
LeftArm  65.0564 -35.2444 -90.5121
LeftForeArm  6.1167 -11.568 -16.0557
LeftHand  -0.0199343 4.49636 -0.8902
RightShoulder  13.5205 23.0103 44.385
RightArm  36.0607 11.7045 20.7742
RightForeArm  21.4824 28.6218 5.02076
RightHand  1.61124 7.51302 14.0122
LeftUpLeg  -112.195 27.4756 -74.5681
LeftLeg  139.854 -5.80663 4.17288
LeftFoot  0.947751 0.542533 -5.09207
LeftToes  1.03528e-008 1.55373e-010 -2.26046e-010
328
root  26.8188 39.5703 -51.2196 167.853 12.615 178.812
RightUpLeg  12.4955 -13.371 2.18024
RightLeg  26.7175 -3.99442 -2.41733
RightFoot  -12.1668 -0.0512573 4.34289
RightToes  -1.16417e-010 0 -3.6325e-017
Spine  12.732 6.77977 -2.2089
Spine1  -7.00524 -4.90149 9.76044
HEad  1.22598 -6.41445 -5.35656
LeftShoulder1  2.94909 -5.36296 -27.1735
LeftArm  66.899 -35.5754 -90.8118
LeftForeArm  3.07079 -12.0201 -15.9226
LeftHand  -0.0178801 4.45399 -1.02301
RightShoulder  13.946 23.9567 44.17
RightArm  36.8417 12.8546 20.921
RightForeArm  20.0965 27.8207 4.91429
RightHand  1.66837 7.7071 14.2931
LeftUpLeg  -115.366 25.3559 -73.6057
LeftLeg  140.626 -8.02799 5.72624
LeftFoot  0.12318 0.745289 -7.42652
LeftToes  1.03528e-008 1.55373e-010 -2.26046e-010
329
root  26.7003 40.2843 -52.3864 168.338 12.354 179.153
RightUpLeg  11.4584 -14.2519 1.27654
RightLeg  29.1959 -3.46181 -2.33432
RightFoot  -5.34072 0.00363082 -0.760328
RightToes  -1.16417e-010 0 -3.6325e-017
Spine  12.5672 8.06667 -1.72172
Spine1  -8.30098 -4.54913 11.2792
HEad  1.35743 -8.38164 -4.25088
LeftShoulder1  2.88053 -5.35803 -26.3916
LeftArm  69.917 -36.2696 -91.5234
LeftForeArm  -1.14153 -12.7536 -15.6521
LeftHand  -0.0156795 4.43606 -1.44259
RightShoulder  14.2424 24.9176 43.5225
RightArm  36.611 14.1418 20.8023
RightForeArm  20.3458 27.7578 4.88638
RightHand  1.70182 7.956 14.3015
LeftUpLeg  -117.904 24.2287 -72.1524
LeftLeg  141.195 -8.56267 5.99763
LeftFoot  -1.25628 0.925084 -10.3788
LeftToes  1.03528e-008 1.55373e-010 -2.26046e-010
330
root  26.6352 40.4904 -53.3908 169.314 11.4968 179.169
RightUpLeg  8.98323 -13.6844 1.87248
RightLeg  30.8926 0.684377 0.19441
RightFoot  -4.93352 0.0801632 -2.02844
RightToes  -1.16417e-010 0 -3.6325e-017
Spine  12.296 9.11592 -2.18542
Spine1  -8.89643 -4.55442 12.0752
HEad  0.582171 -10.0743 -2.11158
LeftShoulder1  2.86702 -5.46203 -25.8435
LeftArm  70.3364 -37.3094 -92.3127
LeftForeArm  -1.98671 -12.6782 -15.7465
LeftHand  -0.01677 4.59473 -1.44307
RightShoulder  14.3273 25.6519 42.6005
RightArm  35.9034 15.4263 21.0736
RightForeArm  21.0083 27.5893 4.81211
RightHand  1.68971 8.08691 14.0548
LeftUpLeg  -119.709 22.9256 -72.315
LeftLeg  141.401 -8.34182 5.79104
LeftFoot  -2.82562 0.932431 -12.2611
LeftToes  1.03528e-008 1.55373e-010 -2.26046e-010
331
root  26.5969 40.4051 -54.2224 170.82 10.1479 179.938
RightUpLeg  5.38125 -13.0058 4.92403
RightLeg  29.9509 1.45608 0.65829
RightFoot  -8.19129 -0.0184443 -1.34631
RightToes  -1.16417e-010 0 -3.6325e-017
Spine  12.4915 9.55941 -1.91532
Spine1  -9.2431 -4.80832 12.6727
HEad  -0.584019 -12.0598 -0.207749
LeftShoulder1  2.90906 -5.53716 -26.0512
LeftArm  68.1397 -38.18 -92.2749
LeftForeArm  -1.00523 -11.9554 -16.1662
LeftHand  -0.0180378 4.70771 -1.23315
RightShoulder  14.6171 26.5336 42.1282
RightArm  36.1169 16.6347 20.6298
RightForeArm  20.7107 27.4375 4.79421
RightHand  1.7056 8.0921 14.1834
LeftUpLeg  -120.3 22.9009 -71.8812
LeftLeg  141.411 -7.57099 5.22726
LeftFoot  -3.1115 1.05748 -14.3792
LeftToes  1.03528e-008 1.55373e-010 -2.26046e-010
332
root  26.6151 39.9197 -54.9128 172.527 9.28391 -178.67
RightUpLeg  1.50844 -14.5576 8.90154
RightLeg  27.107 -0.963594 -0.773178
RightFoot  -13.6902 -0.0986239 -0.292215
RightToes  -1.16417e-010 0 -3.6325e-017
Spine  13.168 10.1036 -0.877587
Spine1  -9.48581 -4.72956 12.9138
HEad  -2.27125 -14.5376 1.80352
LeftShoulder1  2.95362 -5.64824 -26.1518
LeftArm  64.9918 -38.9659 -92.2701
LeftForeArm  1.56407 -10.9483 -16.6362
LeftHand  -0.0191023 4.78067 -1.23285
RightShoulder  14.6407 27.1466 41.2675
RightArm  36.9995 17.057 21.1377
RightForeArm  20.1395 27.1362 4.75783
RightHand  1.67049 7.91083 14.0838
LeftUpLeg  -121.206 23.9965 -70.8944
LeftLeg  141.848 -7.1513 4.8385
LeftFoot  -2.25277 1.25443 -15.5351
LeftToes  1.03528e-008 1.55373e-010 -2.26046e-010
333
root  26.6684 38.8358 -55.5535 174.403 7.52569 -177.5
RightUpLeg  -2.19473 -17.0137 12.0715
RightLeg  24.9241 -2.36456 1.1675
RightFoot  -14.245 0.0755801 6.7913
RightToes  -1.16417e-010 0 -3.6325e-017
Spine  13.0072 10.0918 -0.107551
Spine1  -8.87728 -5.05742 12.0962
HEad  -3.69479 -17.8627 4.27557
LeftShoulder1  3.01051 -5.78898 -26.2805
LeftArm  63.0071 -39.2804 -92.3122
LeftForeArm  4.39721 -10.3469 -16.8263
LeftHand  -0.0204783 4.82776 -1.39758
RightShoulder  14.6926 27.3115 41.18
RightArm  38.7776 16.5588 21.1206
RightForeArm  18.9813 27.0275 4.79659
RightHand  1.67205 7.82388 14.1935
LeftUpLeg  -120.823 24.9834 -70.267
LeftLeg  142.963 -6.92678 4.47741
LeftFoot  -2.77956 1.14301 -14.9778
LeftToes  1.03528e-008 1.55373e-010 -2.26046e-010
